<?xml version="1.0" encoding="UTF-8" standalone="no"?> <svg width="24" height="24" viewBox="0 0 24 24" fill="#fff" xmlns="http://www.w3.org/2000/svg">
<path fill-rule="evenodd" clip-rule="evenodd" d="M9.36992 6.77321C11.8669 2.61157 16.5843 0.315254 21.4001 0.917228C22.2799 1.0272 22.9728 1.72016 23.0828 2.59993C23.6848 7.41572 21.3885 12.1331 17.2268 14.6301L16 15.3662V18.0388C16 18.9501 15.5858 19.812 14.8741 20.3814L12.2494 22.4811C10.9399 23.5287 9.00003 22.5964 9.00003 20.9194V19.4015C8.00858 19.6357 6.93899 19.3532 6.18874 18.6029L5.39711 17.8113C4.64686 17.061 4.36437 15.9915 4.59855 15H3.08066C1.40365 15 0.4713 13.0601 1.51892 11.7506L3.61868 9.12592C4.18799 8.41427 5.04993 8 5.96128 8H8.63384L9.36992 6.77321ZM7.43384 10H5.96128C5.6575 10 5.37019 10.1381 5.18042 10.3753L3.08066 13H5.63384L7.43384 10ZM11 18.3662L14 16.5662V18.0388C14 18.3425 13.8619 18.6298 13.6247 18.8196L11 20.9194V18.3662ZM21.1041 2.89591C17.0908 2.4133 13.1662 4.33345 11.0849 7.8022L6.66094 15.1755C6.42485 15.569 6.48686 16.0726 6.81133 16.3971L7.60296 17.1887C7.92742 17.5132 8.43108 17.5752 8.82456 17.3391L16.1978 12.9151C19.6666 10.8339 21.5867 6.90923 21.1041 2.89591ZM18.7071 5.29289C19.0977 5.68342 19.0977 6.31658 18.7071 6.70711L17.7071 7.70711C17.3166 8.09763 16.6835 8.09763 16.2929 7.70711C15.9024 7.31658 15.9024 6.68342 16.2929 6.29289L17.2929 5.29289C17.6835 4.90237 18.3166 4.90237 18.7071 5.29289ZM4.70714 19.2929C5.09766 19.6834 5.09766 20.3166 4.70714 20.7071L3.70714 21.7071C3.31662 22.0976 2.68345 22.0976 2.29293 21.7071C1.9024 21.3166 1.9024 20.6834 2.29293 20.2929L3.29293 19.2929C3.68345 18.9024 4.31662 18.9024 4.70714 19.2929Z" fill="#fff"/>
</svg>
